<?xml version="1.0" encoding="UTF-8" standalone="no"?>
<svg
   xmlns:dc="http://purl.org/dc/elements/1.1/"
   xmlns:cc="http://creativecommons.org/ns#"
   xmlns:rdf="http://www.w3.org/1999/02/22-rdf-syntax-ns#"
   xmlns:svg="http://www.w3.org/2000/svg"
   xmlns="http://www.w3.org/2000/svg"
   xmlns:sodipodi="http://sodipodi.sourceforge.net/DTD/sodipodi-0.dtd"
   xmlns:inkscape="http://www.inkscape.org/namespaces/inkscape"
   width="128.0px"
   height="128.0px"
   viewBox="0 0 128.0 128.0"
   version="1.1"
   id="SVGRoot"
   sodipodi:docname="ind-34.svg"
   inkscape:version="1.0.2-2 (e86c870879, 2021-01-15)"
   inkscape:export-filename="C:\Users\Stanley\Documents\Kalmany_Stack\calvinfring22\public\images\industry\ind-33.png"
   inkscape:export-xdpi="96"
   inkscape:export-ydpi="96">
  <defs
     id="defs833">
    <marker
       style="overflow:visible"
       id="marker3518"
       refX="0.0"
       refY="0.0"
       orient="auto"
       inkscape:stockid="Arrow1Lstart"
       inkscape:isstock="true">
      <path
         transform="scale(0.8) translate(12.5,0)"
         style="fill-rule:evenodd;stroke:#000000;stroke-width:1pt;stroke-opacity:1;fill:#000000;fill-opacity:1"
         d="M 0.0,0.0 L 5.0,-5.0 L -12.5,0.0 L 5.0,5.0 L 0.0,0.0 z "
         id="path3516" />
    </marker>
    <marker
       style="overflow:visible"
       id="marker3508"
       refX="0.0"
       refY="0.0"
       orient="auto"
       inkscape:stockid="Arrow1Lstart"
       inkscape:isstock="true">
      <path
         transform="scale(0.8) translate(12.5,0)"
         style="fill-rule:evenodd;stroke:#000000;stroke-width:1pt;stroke-opacity:1;fill:#000000;fill-opacity:1"
         d="M 0.0,0.0 L 5.0,-5.0 L -12.5,0.0 L 5.0,5.0 L 0.0,0.0 z "
         id="path3506" />
    </marker>
    <marker
       style="overflow:visible"
       id="marker3474"
       refX="0.0"
       refY="0.0"
       orient="auto"
       inkscape:stockid="Arrow1Lstart"
       inkscape:isstock="true">
      <path
         transform="scale(0.8) translate(12.5,0)"
         style="fill-rule:evenodd;stroke:#000000;stroke-width:1pt;stroke-opacity:1;fill:#000000;fill-opacity:1"
         d="M 0.0,0.0 L 5.0,-5.0 L -12.5,0.0 L 5.0,5.0 L 0.0,0.0 z "
         id="path3472" />
    </marker>
    <marker
       style="overflow:visible"
       id="marker3386"
       refX="0.0"
       refY="0.0"
       orient="auto"
       inkscape:stockid="Arrow1Lstart"
       inkscape:isstock="true">
      <path
         transform="scale(0.8) translate(12.5,0)"
         style="fill-rule:evenodd;stroke:#000000;stroke-width:1pt;stroke-opacity:1;fill:#000000;fill-opacity:1"
         d="M 0.0,0.0 L 5.0,-5.0 L -12.5,0.0 L 5.0,5.0 L 0.0,0.0 z "
         id="path3384" />
    </marker>
    <marker
       style="overflow:visible"
       id="marker3354"
       refX="0.0"
       refY="0.0"
       orient="auto"
       inkscape:stockid="Arrow1Lstart"
       inkscape:isstock="true">
      <path
         transform="scale(0.8) translate(12.5,0)"
         style="fill-rule:evenodd;stroke:#000000;stroke-width:1pt;stroke-opacity:1;fill:#000000;fill-opacity:1"
         d="M 0.0,0.0 L 5.0,-5.0 L -12.5,0.0 L 5.0,5.0 L 0.0,0.0 z "
         id="path3352" />
    </marker>
  </defs>
  <sodipodi:namedview
     id="base"
     pagecolor="#ffffff"
     bordercolor="#666666"
     borderopacity="1.0"
     inkscape:pageopacity="0.0"
     inkscape:pageshadow="2"
     inkscape:zoom="3.6902135"
     inkscape:cx="77.996734"
     inkscape:cy="56.579865"
     inkscape:document-units="px"
     inkscape:current-layer="layer1"
     inkscape:document-rotation="0"
     showgrid="true"
     inkscape:window-width="1920"
     inkscape:window-height="1009"
     inkscape:window-x="1912"
     inkscape:window-y="-8"
     inkscape:window-maximized="1">
    <inkscape:grid
       type="xygrid"
       id="grid1403" />
  </sodipodi:namedview>
  <metadata
     id="metadata836">
    <rdf:RDF>
      <cc:Work
         rdf:about="">
        <dc:format>image/svg+xml</dc:format>
        <dc:type
           rdf:resource="http://purl.org/dc/dcmitype/StillImage" />
        <dc:title></dc:title>
      </cc:Work>
    </rdf:RDF>
  </metadata>
  <g
     inkscape:label="Layer 1"
     inkscape:groupmode="layer"
     id="layer1">
    <circle
       style="fill:none;fill-opacity:1;stroke:#000000;stroke-width:6;stroke-linecap:round;stroke-linejoin:round;stroke-miterlimit:4;stroke-dasharray:none;stroke-dashoffset:0;stroke-opacity:1"
       id="path3308"
       sodipodi:type="arc"
       sodipodi:cx="22.000452"
       sodipodi:cy="16.073721"
       sodipodi:rx="6"
       sodipodi:ry="6"
       sodipodi:start="0"
       sodipodi:end="6.2708982"
       sodipodi:open="true"
       sodipodi:arc-type="arc"
       d="M 28.000452,16.073721 A 6,6 0 0 1 22.018883,22.073693 6,6 0 0 1 16.000565,16.110582 6,6 0 0 1 21.945161,10.073976 6,6 0 0 1 27.999999,16" />
    <circle
       style="fill:none;fill-opacity:1;stroke:#000000;stroke-width:6;stroke-linecap:round;stroke-linejoin:round;stroke-miterlimit:4;stroke-dasharray:none;stroke-dashoffset:0;stroke-opacity:1"
       id="path3308-9"
       sodipodi:type="arc"
       sodipodi:cx="54.000454"
       sodipodi:cy="20.073721"
       sodipodi:rx="6"
       sodipodi:ry="6"
       sodipodi:start="0"
       sodipodi:end="6.2708982"
       sodipodi:open="true"
       sodipodi:arc-type="arc"
       d="M 60.000454,20.073721 A 6,6 0 0 1 54.018885,26.073693 6,6 0 0 1 48.000567,20.110582 6,6 0 0 1 53.945163,14.073976 6,6 0 0 1 60.000001,20" />
    <rect
       style="fill:none;fill-opacity:1;stroke:#000000;stroke-width:6;stroke-linecap:round;stroke-linejoin:round;stroke-miterlimit:4;stroke-dasharray:none;stroke-dashoffset:0;stroke-opacity:1"
       id="rect3330"
       width="44"
       height="44"
       x="42"
       y="42" />
    <rect
       style="fill:none;fill-opacity:1;stroke:#000000;stroke-width:6;stroke-linecap:round;stroke-linejoin:round;stroke-miterlimit:4;stroke-dasharray:none;stroke-dashoffset:0;stroke-opacity:1"
       id="rect3332"
       width="28"
       height="28"
       x="50"
       y="50" />
    <path
       style="fill:none;stroke:#000000;stroke-width:6;stroke-linecap:round;stroke-linejoin:round;stroke-miterlimit:4;stroke-dasharray:none;stroke-opacity:1"
       d="M 40,52 H 20 V 24"
       id="path3336"
       sodipodi:nodetypes="ccc" />
    <path
       style="fill:none;stroke:#000000;stroke-width:6;stroke-linecap:round;stroke-linejoin:round;stroke-opacity:1;stroke-miterlimit:4;stroke-dasharray:none"
       d="M 52,28 V 40"
       id="path3338" />
    <circle
       style="fill:none;fill-opacity:1;stroke:#000000;stroke-width:6;stroke-linecap:round;stroke-linejoin:round;stroke-miterlimit:4;stroke-dasharray:none;stroke-dashoffset:0;stroke-opacity:1"
       id="path3308-1"
       sodipodi:type="arc"
       sodipodi:cx="-105.99956"
       sodipodi:cy="16.073723"
       sodipodi:rx="6"
       sodipodi:ry="6"
       sodipodi:start="0"
       sodipodi:end="6.2708982"
       sodipodi:open="true"
       sodipodi:arc-type="arc"
       d="m -99.999557,16.073723 a 6,6 0 0 1 -5.981573,5.999972 6,6 0 0 1 -6.01831,-5.963111 6,6 0 0 1 5.94459,-6.036606 6,6 0 0 1 6.05484,5.926024"
       transform="rotate(-90)" />
    <circle
       style="fill:none;fill-opacity:1;stroke:#000000;stroke-width:6;stroke-linecap:round;stroke-linejoin:round;stroke-miterlimit:4;stroke-dasharray:none;stroke-dashoffset:0;stroke-opacity:1"
       id="path3308-9-1"
       sodipodi:type="arc"
       sodipodi:cx="-73.999542"
       sodipodi:cy="20.073723"
       sodipodi:rx="6"
       sodipodi:ry="6"
       sodipodi:start="0"
       sodipodi:end="6.2708982"
       sodipodi:open="true"
       sodipodi:arc-type="arc"
       d="m -67.999542,20.073723 a 6,6 0 0 1 -5.98157,5.999972 6,6 0 0 1 -6.018317,-5.963111 6,6 0 0 1 5.944596,-6.036606 6,6 0 0 1 6.054838,5.926024"
       transform="rotate(-90)" />
    <path
       style="fill:none;stroke:#000000;stroke-width:6;stroke-linecap:round;stroke-linejoin:round;stroke-miterlimit:4;stroke-dasharray:none;stroke-opacity:1"
       d="M 24,108 H 52 V 88"
       id="path3334-6"
       sodipodi:nodetypes="ccc" />
    <path
       style="fill:none;stroke:#000000;stroke-width:6;stroke-linecap:round;stroke-linejoin:round;stroke-miterlimit:4;stroke-dasharray:none;stroke-opacity:1"
       d="M 28,76 H 40"
       id="path3338-0" />
    <circle
       style="fill:none;fill-opacity:1;stroke:#000000;stroke-width:6;stroke-linecap:round;stroke-linejoin:round;stroke-miterlimit:4;stroke-dasharray:none;stroke-dashoffset:0;stroke-opacity:1"
       id="path3308-2"
       sodipodi:type="arc"
       sodipodi:cx="-105.99955"
       sodipodi:cy="-111.92628"
       sodipodi:rx="6"
       sodipodi:ry="6"
       sodipodi:start="0"
       sodipodi:end="6.2708982"
       sodipodi:open="true"
       sodipodi:arc-type="arc"
       d="m -99.99955,-111.92628 a 6,6 0 0 1 -5.98157,5.99997 6,6 0 0 1 -6.01832,-5.96311 6,6 0 0 1 5.9446,-6.0366 A 6,6 0 0 1 -100,-112"
       transform="scale(-1)" />
    <circle
       style="fill:none;fill-opacity:1;stroke:#000000;stroke-width:6;stroke-linecap:round;stroke-linejoin:round;stroke-miterlimit:4;stroke-dasharray:none;stroke-dashoffset:0;stroke-opacity:1"
       id="path3308-9-8"
       sodipodi:type="arc"
       sodipodi:cx="-73.999542"
       sodipodi:cy="-107.92628"
       sodipodi:rx="6"
       sodipodi:ry="6"
       sodipodi:start="0"
       sodipodi:end="6.2708982"
       sodipodi:open="true"
       sodipodi:arc-type="arc"
       d="m -67.999542,-107.92628 a 6,6 0 0 1 -5.98157,5.99997 6,6 0 0 1 -6.018317,-5.96311 6,6 0 0 1 5.944596,-6.0366 6,6 0 0 1 6.054838,5.92602"
       transform="scale(-1)" />
    <path
       style="fill:none;stroke:#000000;stroke-width:6;stroke-linecap:round;stroke-linejoin:round;stroke-miterlimit:4;stroke-dasharray:none;stroke-opacity:1"
       d="M 108,104 V 76 l -20,4e-6"
       id="path3334-0"
       sodipodi:nodetypes="ccc" />
    <path
       style="fill:none;stroke:#000000;stroke-width:6;stroke-linecap:round;stroke-linejoin:round;stroke-miterlimit:4;stroke-dasharray:none;stroke-opacity:1"
       d="M 76,100 V 88.000004"
       id="path3338-3" />
    <circle
       style="fill:none;fill-opacity:1;stroke:#000000;stroke-width:6;stroke-linecap:round;stroke-linejoin:round;stroke-miterlimit:4;stroke-dasharray:none;stroke-dashoffset:0;stroke-opacity:1"
       id="path3308-2-7"
       sodipodi:type="arc"
       sodipodi:cx="22.000458"
       sodipodi:cy="-111.92628"
       sodipodi:rx="6"
       sodipodi:ry="6"
       sodipodi:start="0"
       sodipodi:end="6.2708982"
       sodipodi:open="true"
       sodipodi:arc-type="arc"
       transform="rotate(90)"
       d="m 28.000458,-111.92628 a 6,6 0 0 1 -5.98157,5.99997 6,6 0 0 1 -6.018317,-5.96311 6,6 0 0 1 5.944596,-6.0366 6,6 0 0 1 6.054838,5.92602" />
    <circle
       style="fill:none;fill-opacity:1;stroke:#000000;stroke-width:6;stroke-linecap:round;stroke-linejoin:round;stroke-miterlimit:4;stroke-dasharray:none;stroke-dashoffset:0;stroke-opacity:1"
       id="path3308-9-8-2"
       sodipodi:type="arc"
       sodipodi:cx="54.000454"
       sodipodi:cy="-107.92628"
       sodipodi:rx="6"
       sodipodi:ry="6"
       sodipodi:start="0"
       sodipodi:end="6.2708982"
       sodipodi:open="true"
       sodipodi:arc-type="arc"
       transform="rotate(90)"
       d="m 60.000454,-107.92628 a 6,6 0 0 1 -5.981569,5.99997 6,6 0 0 1 -6.018318,-5.96311 6,6 0 0 1 5.944596,-6.0366 6,6 0 0 1 6.054838,5.92602" />
    <path
       style="fill:none;stroke:#000000;stroke-width:6;stroke-linecap:round;stroke-linejoin:round;stroke-miterlimit:4;stroke-dasharray:none;stroke-opacity:1"
       d="M 76.000004,40 76,20 h 28"
       id="path3336-3-7"
       sodipodi:nodetypes="ccc" />
    <path
       style="fill:none;stroke:#000000;stroke-width:6;stroke-linecap:round;stroke-linejoin:round;stroke-miterlimit:4;stroke-dasharray:none;stroke-opacity:1"
       d="M 100,52 H 88"
       id="path3338-3-0" />
  </g>
</svg>
