<?xml version="1.0" encoding="UTF-8" standalone="no"?>
<svg
   xmlns:dc="http://purl.org/dc/elements/1.1/"
   xmlns:cc="http://creativecommons.org/ns#"
   xmlns:rdf="http://www.w3.org/1999/02/22-rdf-syntax-ns#"
   xmlns:svg="http://www.w3.org/2000/svg"
   xmlns="http://www.w3.org/2000/svg"
   xmlns:sodipodi="http://sodipodi.sourceforge.net/DTD/sodipodi-0.dtd"
   xmlns:inkscape="http://www.inkscape.org/namespaces/inkscape"
   width="128.0px"
   height="128.0px"
   viewBox="0 0 128.0 128.0"
   version="1.1"
   id="SVGRoot"
   sodipodi:docname="ind-30.svg"
   inkscape:version="1.0.2-2 (e86c870879, 2021-01-15)"
   inkscape:export-filename="C:\Users\Stanley\Documents\Kalmany_Stack\calvinfring22\public\images\industry\ind-29.png"
   inkscape:export-xdpi="96"
   inkscape:export-ydpi="96">
  <defs
     id="defs833">
    <marker
       style="overflow:visible"
       id="Arrow1Lstart"
       refX="0.0"
       refY="0.0"
       orient="auto"
       inkscape:stockid="Arrow1Lstart"
       inkscape:isstock="true">
      <path
         transform="scale(0.8) translate(12.5,0)"
         style="fill-rule:evenodd;stroke:#000000;stroke-width:1pt;stroke-opacity:1;fill:#000000;fill-opacity:1"
         d="M 0.0,0.0 L 5.0,-5.0 L -12.5,0.0 L 5.0,5.0 L 0.0,0.0 z "
         id="path1462" />
    </marker>
  </defs>
  <sodipodi:namedview
     id="base"
     pagecolor="#ffffff"
     bordercolor="#666666"
     borderopacity="1.0"
     inkscape:pageopacity="0.0"
     inkscape:pageshadow="2"
     inkscape:zoom="3.6902135"
     inkscape:cx="77.996734"
     inkscape:cy="89.098308"
     inkscape:document-units="px"
     inkscape:current-layer="layer1"
     inkscape:document-rotation="0"
     showgrid="true"
     inkscape:window-width="1920"
     inkscape:window-height="1009"
     inkscape:window-x="1912"
     inkscape:window-y="-8"
     inkscape:window-maximized="1">
    <inkscape:grid
       type="xygrid"
       id="grid1403" />
  </sodipodi:namedview>
  <metadata
     id="metadata836">
    <rdf:RDF>
      <cc:Work
         rdf:about="">
        <dc:format>image/svg+xml</dc:format>
        <dc:type
           rdf:resource="http://purl.org/dc/dcmitype/StillImage" />
        <dc:title></dc:title>
      </cc:Work>
    </rdf:RDF>
  </metadata>
  <g
     inkscape:label="Layer 1"
     inkscape:groupmode="layer"
     id="layer1">
    <path
       id="path3146"
       style="fill:none;stroke:#000000;stroke-width:6;stroke-linecap:round;stroke-linejoin:round;stroke-miterlimit:4;stroke-dasharray:none;stroke-dashoffset:0;stroke-opacity:1"
       d="M 44.680128,109.34006 50.433039,89.709556 A 27.069562,27.069562 0 0 1 41.82003,80.781219 27.069562,27.069562 0 0 1 39.050779,74.34347 L 18.109053,69.674854 a 46.844766,46.844766 0 0 0 6.502354,21.332694 46.844766,46.844766 0 0 0 20.068721,18.332512 z" />
    <path
       id="path3190"
       style="fill:none;stroke:#000000;stroke-width:6;stroke-linecap:round;stroke-linejoin:round;stroke-miterlimit:4;stroke-dasharray:none;stroke-dashoffset:0;stroke-opacity:1"
       d="M 106.11868,89.300399 85.524615,84.708555 a 27.069562,27.069562 0 0 1 -6.3905,5.387052 l -0.285483,0.170554 a 27.069562,27.069562 0 0 1 -6.889012,2.870058 l -6.089892,20.773191 a 46.844766,46.844766 0 0 0 22.819665,-6.48907 l 0.49348,-0.29585 A 46.844766,46.844766 0 0 0 106.11843,89.299986 Z" />
    <path
       id="path3142"
       style="fill:none;stroke:#000000;stroke-width:6;stroke-linecap:round;stroke-linejoin:round;stroke-miterlimit:4;stroke-dasharray:none;stroke-dashoffset:0;stroke-opacity:1"
       d="m 84.909881,48.515941 a 27.069562,27.069562 0 0 1 3.366366,4.465292 27.069562,27.069562 0 0 1 0.212581,0.356704 A 27.069562,27.069562 0 0 1 92,64 l 19.70802,4.395558 a 46.844766,46.844766 0 0 0 -6.42343,-25.02806 46.844766,46.844766 0 0 0 -0.27875,-0.468839 46.844766,46.844766 0 0 0 -14.11503,-14.78315 z" />
    <path
       id="path3187"
       style="fill:none;stroke:#000000;stroke-width:6;stroke-linecap:round;stroke-linejoin:round;stroke-miterlimit:4;stroke-dasharray:none;stroke-dashoffset:0;stroke-opacity:1"
       d="M 70.569048,20.578378 A 46.844766,46.844766 0 0 0 40.827499,26.880146 46.844766,46.844766 0 0 0 21.934763,48.374512 l 20.053278,4.471711 a 27.069562,27.069562 0 0 1 9.202132,-9.121885 27.069562,27.069562 0 0 1 13.720082,-3.840668 z" />
    <path
       style="fill:none;stroke:#000000;stroke-width:6;stroke-linecap:butt;stroke-linejoin:miter;stroke-opacity:1;stroke-miterlimit:4;stroke-dasharray:none"
       d="M 32,32 C 32,32 48,8 64,8 80,8 96,32 96,32"
       id="path3195" />
    <path
       style="fill:none;stroke:#000000;stroke-width:6;stroke-linecap:round;stroke-linejoin:miter;stroke-opacity:1;stroke-miterlimit:4;stroke-dasharray:none"
       d="M 64,52 V 84"
       id="path3197" />
    <path
       style="fill:none;stroke:#000000;stroke-width:6;stroke-linecap:round;stroke-linejoin:miter;stroke-opacity:1;stroke-miterlimit:4;stroke-dasharray:none"
       d="M 48,68 H 80"
       id="path3199" />
  </g>
</svg>
