<?xml version="1.0" encoding="UTF-8" standalone="no"?>
<svg
   xmlns:dc="http://purl.org/dc/elements/1.1/"
   xmlns:cc="http://creativecommons.org/ns#"
   xmlns:rdf="http://www.w3.org/1999/02/22-rdf-syntax-ns#"
   xmlns:svg="http://www.w3.org/2000/svg"
   xmlns="http://www.w3.org/2000/svg"
   xmlns:sodipodi="http://sodipodi.sourceforge.net/DTD/sodipodi-0.dtd"
   xmlns:inkscape="http://www.inkscape.org/namespaces/inkscape"
   width="128.0px"
   height="128.0px"
   viewBox="0 0 128.0 128.0"
   version="1.1"
   id="SVGRoot"
   sodipodi:docname="cat-14.svg"
   inkscape:version="1.0.2-2 (e86c870879, 2021-01-15)"
   inkscape:export-filename="C:\Users\Stanley\Documents\Kalmany_Stack\calvinfring22\public\images\cat-11.png"
   inkscape:export-xdpi="96"
   inkscape:export-ydpi="96">
  <defs
     id="defs833">
    <marker
       style="overflow:visible"
       id="marker2278"
       refX="0.0"
       refY="0.0"
       orient="auto"
       inkscape:stockid="Arrow1Lstart"
       inkscape:isstock="true">
      <path
         transform="scale(0.8) translate(12.5,0)"
         style="fill-rule:evenodd;stroke:#000000;stroke-width:1pt;stroke-opacity:1;fill:#000000;fill-opacity:1"
         d="M 0.0,0.0 L 5.0,-5.0 L -12.5,0.0 L 5.0,5.0 L 0.0,0.0 z "
         id="path2276" />
    </marker>
    <marker
       style="overflow:visible"
       id="Arrow1Lstart"
       refX="0.0"
       refY="0.0"
       orient="auto"
       inkscape:stockid="Arrow1Lstart"
       inkscape:isstock="true">
      <path
         transform="scale(0.8) translate(12.5,0)"
         style="fill-rule:evenodd;stroke:#000000;stroke-width:1pt;stroke-opacity:1;fill:#000000;fill-opacity:1"
         d="M 0.0,0.0 L 5.0,-5.0 L -12.5,0.0 L 5.0,5.0 L 0.0,0.0 z "
         id="path1994" />
    </marker>
    <rect
       x="72"
       y="16"
       width="44"
       height="60"
       id="rect1765" />
    <rect
       x="8"
       y="12"
       width="48"
       height="64"
       id="rect1759" />
    <rect
       x="8"
       y="12"
       width="48"
       height="64"
       id="rect1759-0" />
    <rect
       x="8"
       y="12"
       width="48"
       height="64"
       id="rect1778" />
    <rect
       x="72"
       y="16"
       width="44"
       height="60"
       id="rect1765-9" />
    <rect
       x="72"
       y="16"
       width="44"
       height="60"
       id="rect1781" />
    <rect
       x="8"
       y="12"
       width="48"
       height="64"
       id="rect1759-0-6" />
    <rect
       x="8"
       y="12"
       width="48"
       height="64"
       id="rect1834" />
    <rect
       x="72"
       y="16"
       width="44"
       height="60"
       id="rect1765-0" />
    <rect
       x="72"
       y="16"
       width="44"
       height="60"
       id="rect1871" />
    <rect
       x="8"
       y="12"
       width="48"
       height="64"
       id="rect1759-0-6-2" />
    <rect
       x="8"
       y="12"
       width="48"
       height="64"
       id="rect1907" />
    <rect
       x="8"
       y="12"
       width="48"
       height="64"
       id="rect1759-0-6-22" />
    <rect
       x="8"
       y="12"
       width="48"
       height="64"
       id="rect1907-6" />
    <rect
       x="72"
       y="16"
       width="44"
       height="60"
       id="rect1765-6" />
    <rect
       x="72"
       y="16"
       width="44"
       height="60"
       id="rect1965" />
  </defs>
  <sodipodi:namedview
     id="base"
     pagecolor="#ffffff"
     bordercolor="#666666"
     borderopacity="1.0"
     inkscape:pageopacity="0.0"
     inkscape:pageshadow="2"
     inkscape:zoom="5.12"
     inkscape:cx="38.888415"
     inkscape:cy="76.912681"
     inkscape:document-units="px"
     inkscape:current-layer="layer1"
     inkscape:document-rotation="0"
     showgrid="true"
     inkscape:window-width="1920"
     inkscape:window-height="1009"
     inkscape:window-x="1912"
     inkscape:window-y="-8"
     inkscape:window-maximized="1">
    <inkscape:grid
       type="xygrid"
       id="grid1403" />
  </sodipodi:namedview>
  <metadata
     id="metadata836">
    <rdf:RDF>
      <cc:Work
         rdf:about="">
        <dc:format>image/svg+xml</dc:format>
        <dc:type
           rdf:resource="http://purl.org/dc/dcmitype/StillImage" />
        <dc:title></dc:title>
      </cc:Work>
    </rdf:RDF>
  </metadata>
  <g
     inkscape:label="Layer 1"
     inkscape:groupmode="layer"
     id="layer1">
    <path
       style="fill:none;stroke:#000000;stroke-width:6;stroke-linecap:butt;stroke-linejoin:round;stroke-opacity:1;stroke-miterlimit:4;stroke-dasharray:none;stroke-dashoffset:0"
       d="m 12,88 c 0.132551,14.69471 6.347177,33.60379 32,32 C 54.718915,88.845002 76.5765,61.00083 108,36 95.137849,33.101569 81.843989,30.990372 80,8 60.236422,44.73162 37.708456,71.879159 12,88 Z"
       id="path3825"
       sodipodi:nodetypes="ccccc" />
    <path
       style="fill:none;stroke:#000000;stroke-width:6;stroke-linecap:butt;stroke-linejoin:miter;stroke-miterlimit:4;stroke-dasharray:none;stroke-dashoffset:0;stroke-opacity:1"
       d="m 80,8 c 25.83097,-1.665879 34.45176,5.181147 40,24"
       id="path3827"
       sodipodi:nodetypes="cc" />
    <path
       style="fill:none;stroke:#000000;stroke-width:6;stroke-linecap:butt;stroke-linejoin:round;stroke-miterlimit:4;stroke-dasharray:none;stroke-dashoffset:0;stroke-opacity:1"
       d="m 108,36 c 4,-8 -0.6864,-14.285511 -16,-20 -0.46228,4.384693 0,8 8,12 l -4,4 v 0"
       id="path3829"
       sodipodi:nodetypes="ccccc" />
    <path
       style="fill:none;stroke:#000000;stroke-width:6;stroke-linecap:butt;stroke-linejoin:miter;stroke-opacity:1;stroke-miterlimit:4;stroke-dasharray:none;stroke-dashoffset:0"
       d="m 56,44 c 9.208201,16.747552 14.876731,18.619504 24,20"
       id="path3831"
       sodipodi:nodetypes="cc" />
    <path
       style="fill:none;stroke:#000000;stroke-width:6;stroke-linecap:butt;stroke-linejoin:miter;stroke-opacity:1;stroke-miterlimit:4;stroke-dasharray:none;stroke-dashoffset:0"
       d="m 44,60 c 8.63445,11.695685 16.501691,15.697698 24,16"
       id="path3833"
       sodipodi:nodetypes="cc" />
    <path
       style="fill:none;stroke:#000000;stroke-width:6;stroke-linecap:butt;stroke-linejoin:miter;stroke-opacity:1;stroke-miterlimit:4;stroke-dasharray:none;stroke-dashoffset:0"
       d="M 48,56 C 47.252273,42.565852 30.406411,40.115119 16,36 l 8,-4 v -8 c 18.471829,4.50588 37.668195,8.919124 36,16"
       id="path3837"
       sodipodi:nodetypes="ccccc" />
  </g>
</svg>
