<?xml version="1.0" encoding="UTF-8" standalone="no"?>
<svg
   xmlns:dc="http://purl.org/dc/elements/1.1/"
   xmlns:cc="http://creativecommons.org/ns#"
   xmlns:rdf="http://www.w3.org/1999/02/22-rdf-syntax-ns#"
   xmlns:svg="http://www.w3.org/2000/svg"
   xmlns="http://www.w3.org/2000/svg"
   xmlns:sodipodi="http://sodipodi.sourceforge.net/DTD/sodipodi-0.dtd"
   xmlns:inkscape="http://www.inkscape.org/namespaces/inkscape"
   width="128.0px"
   height="128.0px"
   viewBox="0 0 128.0 128.0"
   version="1.1"
   id="SVGRoot"
   sodipodi:docname="cat-11.svg"
   inkscape:version="1.0.2-2 (e86c870879, 2021-01-15)"
   inkscape:export-filename="C:\Users\Stanley\Documents\Kalmany_Stack\calvinfring22\public\images\cat-11.png"
   inkscape:export-xdpi="96"
   inkscape:export-ydpi="96">
  <defs
     id="defs833">
    <marker
       style="overflow:visible"
       id="marker2278"
       refX="0.0"
       refY="0.0"
       orient="auto"
       inkscape:stockid="Arrow1Lstart"
       inkscape:isstock="true">
      <path
         transform="scale(0.8) translate(12.5,0)"
         style="fill-rule:evenodd;stroke:#000000;stroke-width:1pt;stroke-opacity:1;fill:#000000;fill-opacity:1"
         d="M 0.0,0.0 L 5.0,-5.0 L -12.5,0.0 L 5.0,5.0 L 0.0,0.0 z "
         id="path2276" />
    </marker>
    <marker
       style="overflow:visible"
       id="Arrow1Lstart"
       refX="0.0"
       refY="0.0"
       orient="auto"
       inkscape:stockid="Arrow1Lstart"
       inkscape:isstock="true">
      <path
         transform="scale(0.8) translate(12.5,0)"
         style="fill-rule:evenodd;stroke:#000000;stroke-width:1pt;stroke-opacity:1;fill:#000000;fill-opacity:1"
         d="M 0.0,0.0 L 5.0,-5.0 L -12.5,0.0 L 5.0,5.0 L 0.0,0.0 z "
         id="path1994" />
    </marker>
    <rect
       x="72"
       y="16"
       width="44"
       height="60"
       id="rect1765" />
    <rect
       x="8"
       y="12"
       width="48"
       height="64"
       id="rect1759" />
    <rect
       x="8"
       y="12"
       width="48"
       height="64"
       id="rect1759-0" />
    <rect
       x="8"
       y="12"
       width="48"
       height="64"
       id="rect1778" />
    <rect
       x="72"
       y="16"
       width="44"
       height="60"
       id="rect1765-9" />
    <rect
       x="72"
       y="16"
       width="44"
       height="60"
       id="rect1781" />
    <rect
       x="8"
       y="12"
       width="48"
       height="64"
       id="rect1759-0-6" />
    <rect
       x="8"
       y="12"
       width="48"
       height="64"
       id="rect1834" />
    <rect
       x="72"
       y="16"
       width="44"
       height="60"
       id="rect1765-0" />
    <rect
       x="72"
       y="16"
       width="44"
       height="60"
       id="rect1871" />
    <rect
       x="8"
       y="12"
       width="48"
       height="64"
       id="rect1759-0-6-2" />
    <rect
       x="8"
       y="12"
       width="48"
       height="64"
       id="rect1907" />
    <rect
       x="8"
       y="12"
       width="48"
       height="64"
       id="rect1759-0-6-22" />
    <rect
       x="8"
       y="12"
       width="48"
       height="64"
       id="rect1907-6" />
    <rect
       x="72"
       y="16"
       width="44"
       height="60"
       id="rect1765-6" />
    <rect
       x="72"
       y="16"
       width="44"
       height="60"
       id="rect1965" />
  </defs>
  <sodipodi:namedview
     id="base"
     pagecolor="#ffffff"
     bordercolor="#666666"
     borderopacity="1.0"
     inkscape:pageopacity="0.0"
     inkscape:pageshadow="2"
     inkscape:zoom="5.12"
     inkscape:cx="38.888415"
     inkscape:cy="69.678655"
     inkscape:document-units="px"
     inkscape:current-layer="layer1"
     inkscape:document-rotation="0"
     showgrid="true"
     inkscape:window-width="1920"
     inkscape:window-height="1009"
     inkscape:window-x="1912"
     inkscape:window-y="-8"
     inkscape:window-maximized="1">
    <inkscape:grid
       type="xygrid"
       id="grid1403" />
  </sodipodi:namedview>
  <metadata
     id="metadata836">
    <rdf:RDF>
      <cc:Work
         rdf:about="">
        <dc:format>image/svg+xml</dc:format>
        <dc:type
           rdf:resource="http://purl.org/dc/dcmitype/StillImage" />
        <dc:title></dc:title>
      </cc:Work>
    </rdf:RDF>
  </metadata>
  <g
     inkscape:label="Layer 1"
     inkscape:groupmode="layer"
     id="layer1">
    <path
       style="fill:#000008;fill-opacity:1;stroke:#000000;stroke-width:6;stroke-linecap:round;stroke-linejoin:bevel;stroke-miterlimit:4;stroke-dasharray:none;stroke-opacity:1"
       d="M 48,84 C 48,84 16,80 12,96 8,112 24,124 36,112 48,100 48,84 48,84 Z"
       id="path3791" />
    <path
       style="fill:none;stroke:#000000;stroke-width:6;stroke-linecap:round;stroke-linejoin:miter;stroke-miterlimit:4;stroke-dasharray:none;stroke-opacity:1"
       d="M 48,84 28,12 72,20"
       id="path3793" />
    <path
       style="fill:none;stroke:#000000;stroke-width:6;stroke-linecap:round;stroke-linejoin:miter;stroke-miterlimit:4;stroke-dasharray:none;stroke-opacity:1"
       d="m 36,36 28,4"
       id="path3795" />
    <path
       style="fill:#000008;fill-opacity:1;stroke:#000000;stroke-width:6;stroke-linecap:round;stroke-linejoin:bevel;stroke-miterlimit:4;stroke-dasharray:none;stroke-opacity:1"
       d="m 104,76 c 0,0 -17.449383,-2.18117 -19.630556,6.54352 -2.181174,8.7247 6.54352,15.268223 13.087039,8.7247 C 104,84.7247 104,76 104,76 Z"
       id="path3791-1" />
    <path
       style="fill:none;stroke:#000000;stroke-width:6;stroke-linecap:round;stroke-linejoin:miter;stroke-miterlimit:4;stroke-dasharray:none;stroke-opacity:1"
       d="M 104,76 93.094137,36.738883 117.08704,41.10123"
       id="path3793-2" />
  </g>
</svg>
