<?xml version="1.0" encoding="UTF-8" standalone="no"?>
<svg
   xmlns:dc="http://purl.org/dc/elements/1.1/"
   xmlns:cc="http://creativecommons.org/ns#"
   xmlns:rdf="http://www.w3.org/1999/02/22-rdf-syntax-ns#"
   xmlns:svg="http://www.w3.org/2000/svg"
   xmlns="http://www.w3.org/2000/svg"
   xmlns:sodipodi="http://sodipodi.sourceforge.net/DTD/sodipodi-0.dtd"
   xmlns:inkscape="http://www.inkscape.org/namespaces/inkscape"
   width="128.0px"
   height="128.0px"
   viewBox="0 0 128.0 128.0"
   version="1.1"
   id="SVGRoot"
   sodipodi:docname="cat-6.svg"
   inkscape:version="1.0.2-2 (e86c870879, 2021-01-15)"
   inkscape:export-filename="C:\Users\Stanley\Documents\Kalmany_Stack\calvinfring22\public\images\cat-6.png"
   inkscape:export-xdpi="96"
   inkscape:export-ydpi="96">
  <defs
     id="defs833">
    <marker
       style="overflow:visible"
       id="marker2278"
       refX="0.0"
       refY="0.0"
       orient="auto"
       inkscape:stockid="Arrow1Lstart"
       inkscape:isstock="true">
      <path
         transform="scale(0.8) translate(12.5,0)"
         style="fill-rule:evenodd;stroke:#000000;stroke-width:1pt;stroke-opacity:1;fill:#000000;fill-opacity:1"
         d="M 0.0,0.0 L 5.0,-5.0 L -12.5,0.0 L 5.0,5.0 L 0.0,0.0 z "
         id="path2276" />
    </marker>
    <marker
       style="overflow:visible"
       id="Arrow1Lstart"
       refX="0.0"
       refY="0.0"
       orient="auto"
       inkscape:stockid="Arrow1Lstart"
       inkscape:isstock="true">
      <path
         transform="scale(0.8) translate(12.5,0)"
         style="fill-rule:evenodd;stroke:#000000;stroke-width:1pt;stroke-opacity:1;fill:#000000;fill-opacity:1"
         d="M 0.0,0.0 L 5.0,-5.0 L -12.5,0.0 L 5.0,5.0 L 0.0,0.0 z "
         id="path1994" />
    </marker>
    <rect
       x="72"
       y="16"
       width="44"
       height="60"
       id="rect1765" />
    <rect
       x="8"
       y="12"
       width="48"
       height="64"
       id="rect1759" />
    <rect
       x="8"
       y="12"
       width="48"
       height="64"
       id="rect1759-0" />
    <rect
       x="8"
       y="12"
       width="48"
       height="64"
       id="rect1778" />
    <rect
       x="72"
       y="16"
       width="44"
       height="60"
       id="rect1765-9" />
    <rect
       x="72"
       y="16"
       width="44"
       height="60"
       id="rect1781" />
    <rect
       x="8"
       y="12"
       width="48"
       height="64"
       id="rect1759-0-6" />
    <rect
       x="8"
       y="12"
       width="48"
       height="64"
       id="rect1834" />
    <rect
       x="72"
       y="16"
       width="44"
       height="60"
       id="rect1765-0" />
    <rect
       x="72"
       y="16"
       width="44"
       height="60"
       id="rect1871" />
    <rect
       x="8"
       y="12"
       width="48"
       height="64"
       id="rect1759-0-6-2" />
    <rect
       x="8"
       y="12"
       width="48"
       height="64"
       id="rect1907" />
    <rect
       x="8"
       y="12"
       width="48"
       height="64"
       id="rect1759-0-6-22" />
    <rect
       x="8"
       y="12"
       width="48"
       height="64"
       id="rect1907-6" />
    <rect
       x="72"
       y="16"
       width="44"
       height="60"
       id="rect1765-6" />
    <rect
       x="72"
       y="16"
       width="44"
       height="60"
       id="rect1965" />
  </defs>
  <sodipodi:namedview
     id="base"
     pagecolor="#ffffff"
     bordercolor="#666666"
     borderopacity="1.0"
     inkscape:pageopacity="0.0"
     inkscape:pageshadow="2"
     inkscape:zoom="5.12"
     inkscape:cx="38.888415"
     inkscape:cy="69.678655"
     inkscape:document-units="px"
     inkscape:current-layer="layer1"
     inkscape:document-rotation="0"
     showgrid="true"
     inkscape:window-width="1920"
     inkscape:window-height="1009"
     inkscape:window-x="3832"
     inkscape:window-y="-8"
     inkscape:window-maximized="1">
    <inkscape:grid
       type="xygrid"
       id="grid1403" />
  </sodipodi:namedview>
  <metadata
     id="metadata836">
    <rdf:RDF>
      <cc:Work
         rdf:about="">
        <dc:format>image/svg+xml</dc:format>
        <dc:type
           rdf:resource="http://purl.org/dc/dcmitype/StillImage" />
        <dc:title></dc:title>
      </cc:Work>
    </rdf:RDF>
  </metadata>
  <g
     inkscape:label="Layer 1"
     inkscape:groupmode="layer"
     id="layer1">
    <path
       style="fill:none;stroke:#000000;stroke-width:6;stroke-linecap:round;stroke-linejoin:miter;stroke-opacity:1;stroke-miterlimit:4;stroke-dasharray:none"
       d="m 8,36 84,84 v 0"
       id="path5329" />
    <path
       style="fill:none;stroke:#000000;stroke-width:6;stroke-linecap:round;stroke-linejoin:miter;stroke-miterlimit:4;stroke-dasharray:none;stroke-opacity:1"
       d="m 36,8 84,84 v 0"
       id="path5329-3" />
    <path
       style="fill:#000000;fill-opacity:1;stroke:#000000;stroke-width:1px;stroke-linecap:butt;stroke-linejoin:miter;stroke-opacity:1"
       d="m 48,36 c -2.268411,4.238564 8,16 8,16 l 56,-32 c 0,0 6.04688,-6.632812 2.04688,-10.6328125 C 110.04688,5.3671875 100,12 100,12 L 60,40 c 0,0 -10.112568,-7.526698 -12,-4 z"
       id="path5216"
       sodipodi:nodetypes="cccsccc" />
    <path
       style="fill:#000000;fill-opacity:1;stroke:#000000;stroke-width:1px;stroke-linecap:butt;stroke-linejoin:miter;stroke-opacity:1"
       d="M 84,32 96,60 104,48 96,24 Z"
       id="path5218"
       sodipodi:nodetypes="ccccc" />
    <path
       style="fill:none;stroke:#000000;stroke-width:1px;stroke-linecap:butt;stroke-linejoin:miter;stroke-opacity:1"
       d="M 56,20 Z"
       id="path5220" />
    <path
       style="fill:#000000;fill-opacity:1;stroke:#000000;stroke-width:1px;stroke-linecap:butt;stroke-linejoin:miter;stroke-opacity:1"
       d="M 84,28 60,16 72,12 96,20 84,28"
       id="path5222"
       sodipodi:nodetypes="ccccc" />
    <path
       style="fill:#000000;stroke:#000000;stroke-width:1px;stroke-linecap:butt;stroke-linejoin:miter;stroke-opacity:1;fill-opacity:1"
       d="m 52,104 12,16 h 48 l 8,-16 H 52"
       id="path5224" />
    <path
       style="fill:#000000;stroke:#000000;stroke-width:1px;stroke-linecap:butt;stroke-linejoin:miter;stroke-opacity:1;fill-opacity:1"
       d="m 80,104 8,-16 h 20 v 16"
       id="path5226" />
    <path
       style="fill:#000000;stroke:#000000;stroke-width:1px;stroke-linecap:butt;stroke-linejoin:miter;stroke-opacity:1;fill-opacity:1"
       d="m 92,88 -4,-4 h 8 l 4,4"
       id="path5228" />
    <path
       style="fill:#000000;fill-opacity:1;stroke:#000000;stroke-width:1px;stroke-linecap:butt;stroke-linejoin:miter;stroke-opacity:1"
       d="m 16,84 h 68 c 0,0 4,-4 4,-12 0,-8 -4,-12 -4,-12 H 32 c 0,0 -24,8 -24,16 0,8 8,8 8,8"
       id="path5230"
       sodipodi:nodetypes="ccccccc" />
    <path
       style="fill:#ffffff;stroke:#000000;stroke-width:1px;stroke-linecap:butt;stroke-linejoin:miter;stroke-opacity:1;fill-opacity:1"
       d="M 28,64 12,72 H 28 V 64"
       id="path5234" />
    <circle
       style="fill:#ffffff;fill-opacity:1;stroke:none;stroke-width:7.789;stroke-linecap:round;stroke-linejoin:round"
       id="path5236"
       sodipodi:type="arc"
       sodipodi:cx="86.000153"
       sodipodi:cy="24.024574"
       sodipodi:rx="2"
       sodipodi:ry="2"
       sodipodi:start="0"
       sodipodi:end="6.2708982"
       sodipodi:open="true"
       sodipodi:arc-type="arc"
       d="m 88.000153,24.024574 a 2,2 0 0 1 -1.993857,1.999991 2,2 0 0 1 -2.006106,-1.987704 2,2 0 0 1 1.981532,-2.012202 2,2 0 0 1 2.01828,1.975342" />
    <circle
       style="fill:#ffffff;fill-opacity:1;stroke:none;stroke-width:7.789;stroke-linecap:round;stroke-linejoin:round"
       id="path5236-5"
       sodipodi:type="arc"
       sodipodi:cx="94.000153"
       sodipodi:cy="20.024574"
       sodipodi:rx="2"
       sodipodi:ry="2"
       sodipodi:start="0"
       sodipodi:end="6.2708982"
       sodipodi:open="true"
       sodipodi:arc-type="arc"
       d="m 96.000153,20.024574 a 2,2 0 0 1 -1.993857,1.999991 2,2 0 0 1 -2.006106,-1.987704 2,2 0 0 1 1.981532,-2.012202 2,2 0 0 1 2.01828,1.975342" />
    <circle
       style="fill:#ffffff;fill-opacity:1;stroke:none;stroke-width:7.789;stroke-linecap:round;stroke-linejoin:round"
       id="path5236-6"
       sodipodi:type="arc"
       sodipodi:cx="102.00015"
       sodipodi:cy="16.024574"
       sodipodi:rx="2"
       sodipodi:ry="2"
       sodipodi:start="0"
       sodipodi:end="6.2708982"
       sodipodi:open="true"
       sodipodi:arc-type="arc"
       d="m 104.00015,16.024574 a 2,2 0 0 1 -1.99385,1.999991 2,2 0 0 1 -2.00611,-1.987704 2,2 0 0 1 1.98153,-2.012202 A 2,2 0 0 1 104,16.000001" />
    <circle
       style="fill:#ffffff;fill-opacity:1;stroke:none;stroke-width:7.789;stroke-linecap:round;stroke-linejoin:round"
       id="path5267"
       sodipodi:type="arc"
       sodipodi:cx="22.000151"
       sodipodi:cy="84.024574"
       sodipodi:rx="2"
       sodipodi:ry="2"
       sodipodi:start="0"
       sodipodi:end="6.2708982"
       sodipodi:open="true"
       sodipodi:arc-type="arc"
       d="M 24.000151,84.024574 A 2,2 0 0 1 22.006294,86.024565 2,2 0 0 1 20.000188,84.036861 2,2 0 0 1 21.98172,82.024659 2,2 0 0 1 24,84.000001" />
    <circle
       style="fill:#ffffff;fill-opacity:1;stroke:none;stroke-width:7.789;stroke-linecap:round;stroke-linejoin:round"
       id="path5267-0"
       sodipodi:type="arc"
       sodipodi:cx="34.000153"
       sodipodi:cy="84.024574"
       sodipodi:rx="2"
       sodipodi:ry="2"
       sodipodi:start="0"
       sodipodi:end="6.2708982"
       sodipodi:open="true"
       sodipodi:arc-type="arc"
       d="m 36.000153,84.024574 a 2,2 0 0 1 -1.993857,1.999991 2,2 0 0 1 -2.006106,-1.987704 2,2 0 0 1 1.981532,-2.012202 2,2 0 0 1 2.01828,1.975342" />
    <circle
       style="fill:#ffffff;fill-opacity:1;stroke:none;stroke-width:7.789;stroke-linecap:round;stroke-linejoin:round"
       id="path5267-06"
       sodipodi:type="arc"
       sodipodi:cx="46.000153"
       sodipodi:cy="84.024574"
       sodipodi:rx="2"
       sodipodi:ry="2"
       sodipodi:start="0"
       sodipodi:end="6.2708982"
       sodipodi:open="true"
       sodipodi:arc-type="arc"
       d="m 48.000153,84.024574 a 2,2 0 0 1 -1.993857,1.999991 2,2 0 0 1 -2.006106,-1.987704 2,2 0 0 1 1.981532,-2.012202 2,2 0 0 1 2.01828,1.975342" />
    <circle
       style="fill:#ffffff;fill-opacity:1;stroke:none;stroke-width:7.789;stroke-linecap:round;stroke-linejoin:round"
       id="path5267-3"
       sodipodi:type="arc"
       sodipodi:cx="58.000153"
       sodipodi:cy="84.024574"
       sodipodi:rx="2"
       sodipodi:ry="2"
       sodipodi:start="0"
       sodipodi:end="6.2708982"
       sodipodi:open="true"
       sodipodi:arc-type="arc"
       d="m 60.000153,84.024574 a 2,2 0 0 1 -1.993857,1.999991 2,2 0 0 1 -2.006106,-1.987704 2,2 0 0 1 1.981532,-2.012202 2,2 0 0 1 2.01828,1.975342" />
    <circle
       style="fill:#ffffff;fill-opacity:1;stroke:none;stroke-width:7.789;stroke-linecap:round;stroke-linejoin:round"
       id="path5267-3-9"
       sodipodi:type="arc"
       sodipodi:cx="70.000153"
       sodipodi:cy="84.024574"
       sodipodi:rx="2"
       sodipodi:ry="2"
       sodipodi:start="0"
       sodipodi:end="6.2708982"
       sodipodi:open="true"
       sodipodi:arc-type="arc"
       d="m 72.000153,84.024574 a 2,2 0 0 1 -1.993857,1.999991 2,2 0 0 1 -2.006106,-1.987704 2,2 0 0 1 1.981532,-2.012202 2,2 0 0 1 2.01828,1.975342" />
    <path
       style="fill:#ffffff;fill-opacity:1;stroke:#ffffff;stroke-width:1px;stroke-linecap:butt;stroke-linejoin:miter;stroke-opacity:1"
       d="m 52,124 c 0,0 1.365428,-4 3.328637,-4.15353 C 59.185426,119.54486 65.349285,118.65071 68,116 l 4,-4 v 8 c 0,0 8,0 12,-4 l 4,-4 v 8 c 0,0 8,0 12,-4 l 4,-4 v 8 c 0,0 8,0 12,-4 l 4,-4 v 12"
       id="path5327"
       sodipodi:nodetypes="cssccsccsccscc" />
    <path
       style="fill:none;stroke:#000000;stroke-width:5;stroke-linecap:round;stroke-linejoin:miter;stroke-opacity:1;stroke-miterlimit:4;stroke-dasharray:none"
       d="M 28,28 40,40"
       id="path5351" />
    <path
       style="fill:none;stroke:#000000;stroke-width:5;stroke-linecap:round;stroke-linejoin:miter;stroke-miterlimit:4;stroke-dasharray:none;stroke-opacity:1"
       d="M 56,56 68,68"
       id="path5351-9" />
    <path
       style="fill:none;stroke:#000000;stroke-width:5;stroke-linecap:round;stroke-linejoin:miter;stroke-miterlimit:4;stroke-dasharray:none;stroke-opacity:1"
       d="M 84,84 96,96"
       id="path5351-4" />
    <path
       style="fill:#ffffff;stroke:#000000;stroke-width:1px;stroke-linecap:butt;stroke-linejoin:miter;stroke-opacity:1;fill-opacity:1"
       d="m 104,92 v 8 h -8 v -4 l 8,-4"
       id="path5232" />
  </g>
</svg>
