<?xml version="1.0" encoding="UTF-8" standalone="no"?>
<svg
   xmlns:dc="http://purl.org/dc/elements/1.1/"
   xmlns:cc="http://creativecommons.org/ns#"
   xmlns:rdf="http://www.w3.org/1999/02/22-rdf-syntax-ns#"
   xmlns:svg="http://www.w3.org/2000/svg"
   xmlns="http://www.w3.org/2000/svg"
   xmlns:sodipodi="http://sodipodi.sourceforge.net/DTD/sodipodi-0.dtd"
   xmlns:inkscape="http://www.inkscape.org/namespaces/inkscape"
   width="128.0px"
   height="128.0px"
   viewBox="0 0 128.0 128.0"
   version="1.1"
   id="SVGRoot"
   sodipodi:docname="cat-8.svg"
   inkscape:version="1.0.2-2 (e86c870879, 2021-01-15)"
   inkscape:export-filename="C:\Users\Stanley\Documents\Kalmany_Stack\calvinfring22\public\images\cat-7.png"
   inkscape:export-xdpi="96"
   inkscape:export-ydpi="96">
  <defs
     id="defs833">
    <marker
       style="overflow:visible"
       id="marker2278"
       refX="0.0"
       refY="0.0"
       orient="auto"
       inkscape:stockid="Arrow1Lstart"
       inkscape:isstock="true">
      <path
         transform="scale(0.8) translate(12.5,0)"
         style="fill-rule:evenodd;stroke:#000000;stroke-width:1pt;stroke-opacity:1;fill:#000000;fill-opacity:1"
         d="M 0.0,0.0 L 5.0,-5.0 L -12.5,0.0 L 5.0,5.0 L 0.0,0.0 z "
         id="path2276" />
    </marker>
    <marker
       style="overflow:visible"
       id="Arrow1Lstart"
       refX="0.0"
       refY="0.0"
       orient="auto"
       inkscape:stockid="Arrow1Lstart"
       inkscape:isstock="true">
      <path
         transform="scale(0.8) translate(12.5,0)"
         style="fill-rule:evenodd;stroke:#000000;stroke-width:1pt;stroke-opacity:1;fill:#000000;fill-opacity:1"
         d="M 0.0,0.0 L 5.0,-5.0 L -12.5,0.0 L 5.0,5.0 L 0.0,0.0 z "
         id="path1994" />
    </marker>
    <rect
       x="72"
       y="16"
       width="44"
       height="60"
       id="rect1765" />
    <rect
       x="8"
       y="12"
       width="48"
       height="64"
       id="rect1759" />
    <rect
       x="8"
       y="12"
       width="48"
       height="64"
       id="rect1759-0" />
    <rect
       x="8"
       y="12"
       width="48"
       height="64"
       id="rect1778" />
    <rect
       x="72"
       y="16"
       width="44"
       height="60"
       id="rect1765-9" />
    <rect
       x="72"
       y="16"
       width="44"
       height="60"
       id="rect1781" />
    <rect
       x="8"
       y="12"
       width="48"
       height="64"
       id="rect1759-0-6" />
    <rect
       x="8"
       y="12"
       width="48"
       height="64"
       id="rect1834" />
    <rect
       x="72"
       y="16"
       width="44"
       height="60"
       id="rect1765-0" />
    <rect
       x="72"
       y="16"
       width="44"
       height="60"
       id="rect1871" />
    <rect
       x="8"
       y="12"
       width="48"
       height="64"
       id="rect1759-0-6-2" />
    <rect
       x="8"
       y="12"
       width="48"
       height="64"
       id="rect1907" />
    <rect
       x="8"
       y="12"
       width="48"
       height="64"
       id="rect1759-0-6-22" />
    <rect
       x="8"
       y="12"
       width="48"
       height="64"
       id="rect1907-6" />
    <rect
       x="72"
       y="16"
       width="44"
       height="60"
       id="rect1765-6" />
    <rect
       x="72"
       y="16"
       width="44"
       height="60"
       id="rect1965" />
  </defs>
  <sodipodi:namedview
     id="base"
     pagecolor="#ffffff"
     bordercolor="#666666"
     borderopacity="1.0"
     inkscape:pageopacity="0.0"
     inkscape:pageshadow="2"
     inkscape:zoom="5.12"
     inkscape:cx="38.888415"
     inkscape:cy="69.678655"
     inkscape:document-units="px"
     inkscape:current-layer="layer1"
     inkscape:document-rotation="0"
     showgrid="true"
     inkscape:window-width="1920"
     inkscape:window-height="1009"
     inkscape:window-x="1912"
     inkscape:window-y="-8"
     inkscape:window-maximized="1">
    <inkscape:grid
       type="xygrid"
       id="grid1403" />
  </sodipodi:namedview>
  <metadata
     id="metadata836">
    <rdf:RDF>
      <cc:Work
         rdf:about="">
        <dc:format>image/svg+xml</dc:format>
        <dc:type
           rdf:resource="http://purl.org/dc/dcmitype/StillImage" />
        <dc:title></dc:title>
      </cc:Work>
    </rdf:RDF>
  </metadata>
  <g
     inkscape:label="Layer 1"
     inkscape:groupmode="layer"
     id="layer1">
    <path
       style="fill:#000000;fill-opacity:1;stroke:#000000;stroke-width:1px;stroke-linecap:butt;stroke-linejoin:miter;stroke-opacity:1"
       d="m 58.321531,118.74351 c -22.045515,-43.178286 -24,-53.33333 -36,-79.999997 16.088143,-8.37096 24.000717,-10.667199 36,-16 11.995054,51.796052 21.426033,57.831456 36,83.999997 z"
       id="path3618"
       sodipodi:nodetypes="ccccc" />
    <path
       style="fill:#000000;fill-opacity:1;stroke:#000000;stroke-width:1px;stroke-linecap:butt;stroke-linejoin:miter;stroke-opacity:1"
       d="M 62.328539,114.25882 37.112478,31.868595 74.321531,18.926942 c 3.560285,24.360041 13.985853,80.057053 28.868499,86.709918 z"
       id="path3618-8"
       sodipodi:nodetypes="ccccc" />
    <path
       style="fill:#000000;fill-opacity:1;stroke:#000000;stroke-width:1px;stroke-linecap:butt;stroke-linejoin:miter;stroke-opacity:1"
       d="M 66.321531,114.74351 48.153917,28.502267 86.321531,18.743513 c 0.975759,10.920201 2.830283,50.854846 21.455839,88.834937 -26.816211,1.46625 -32.784422,5.87873 -41.455839,7.16506 z"
       id="path3618-8-0"
       sodipodi:nodetypes="ccccc" />
    <path
       style="fill:none;stroke:#ffffff;stroke-width:1px;stroke-linecap:butt;stroke-linejoin:miter;stroke-opacity:1"
       d="m 54.321531,10.743513 c 7.028247,21.575789 25.814916,76.460823 40,95.999997"
       id="path3670"
       sodipodi:nodetypes="cc" />
    <path
       style="fill:#fffff9;fill-opacity:1;stroke:#000000;stroke-width:1px;stroke-linecap:butt;stroke-linejoin:miter;stroke-opacity:1"
       d="m 34.321531,70.743513 c 2.855295,10.080205 5.485853,16.09343 8,20 C 52.586139,86.69379 73.13804,77.683692 76,76 c 0.387392,-2.59389 11.931722,-0.257012 22.321531,-1.256487 -2.640722,-4.03237 -5.7601,-7.100281 -4,-20 -8.136068,0.01512 -8.772229,-0.55182 -26.574831,0.551829 -10.413696,2.686577 -21.698101,9.946041 -33.425169,15.448171 z"
       id="path3660"
       sodipodi:nodetypes="ccccccc" />
    <path
       style="fill:none;stroke:#ffffff;stroke-width:1px;stroke-linecap:butt;stroke-linejoin:miter;stroke-opacity:1"
       d="m 66.321531,14.743513 c -4,8 8,20 8,28"
       id="path3662"
       sodipodi:nodetypes="cc" />
    <path
       style="fill:none;stroke:#ffffff;stroke-width:1px;stroke-linecap:butt;stroke-linejoin:miter;stroke-opacity:1"
       d="m 78.321531,14.743513 c -1.1202,2.903797 -7.649293,3.414746 0,16"
       id="path3664"
       sodipodi:nodetypes="cc" />
    <path
       style="fill:none;stroke:#ffffff;stroke-width:1px;stroke-linecap:butt;stroke-linejoin:miter;stroke-opacity:1"
       d="m 102.32153,110.74351 -3.999999,-8"
       id="path3668"
       sodipodi:nodetypes="cc" />
    <path
       style="fill:none;stroke:#ffffff;stroke-width:1px;stroke-linecap:butt;stroke-linejoin:miter;stroke-opacity:1"
       d="m 94.321531,106.74351 -32,12"
       id="path3672" />
    <path
       style="fill:none;stroke:#ffffff;stroke-width:1px;stroke-linecap:butt;stroke-linejoin:miter;stroke-opacity:1"
       d="M 32,48 52,40"
       id="path3674" />
    <path
       style="fill:none;stroke:#fffff7;stroke-width:1px;stroke-linecap:butt;stroke-linejoin:miter;stroke-opacity:1"
       d="M 36,52 52,44"
       id="path3676" />
    <path
       style="fill:none;stroke:#ffffff;stroke-width:1px;stroke-linecap:butt;stroke-linejoin:miter;stroke-opacity:1"
       d="M 56,52 44,48 40,60"
       id="path3678" />
    <path
       style="fill:none;stroke:#ffffff;stroke-width:1px;stroke-linecap:butt;stroke-linejoin:miter;stroke-opacity:1"
       d="M 56,96 76,88"
       id="path3674-7" />
    <path
       style="fill:none;stroke:#fffff7;stroke-width:1px;stroke-linecap:butt;stroke-linejoin:miter;stroke-opacity:1"
       d="M 60,100 76,92"
       id="path3676-6" />
    <path
       style="fill:none;stroke:#ffffff;stroke-width:1px;stroke-linecap:butt;stroke-linejoin:miter;stroke-opacity:1"
       d="M 80,100 68,96 64,108"
       id="path3678-7" />
  </g>
</svg>
