<?xml version="1.0" encoding="UTF-8" standalone="no"?>
<svg
   xmlns:dc="http://purl.org/dc/elements/1.1/"
   xmlns:cc="http://creativecommons.org/ns#"
   xmlns:rdf="http://www.w3.org/1999/02/22-rdf-syntax-ns#"
   xmlns:svg="http://www.w3.org/2000/svg"
   xmlns="http://www.w3.org/2000/svg"
   xmlns:sodipodi="http://sodipodi.sourceforge.net/DTD/sodipodi-0.dtd"
   xmlns:inkscape="http://www.inkscape.org/namespaces/inkscape"
   width="128.0px"
   height="128.0px"
   viewBox="0 0 128.0 128.0"
   version="1.1"
   id="SVGRoot"
   sodipodi:docname="cat-13.svg"
   inkscape:version="1.0.2-2 (e86c870879, 2021-01-15)"
   inkscape:export-filename="C:\Users\Stanley\Documents\Kalmany_Stack\calvinfring22\public\images\cat-2.png"
   inkscape:export-xdpi="96"
   inkscape:export-ydpi="96">
  <defs
     id="defs833">
    <marker
       style="overflow:visible"
       id="marker2278"
       refX="0.0"
       refY="0.0"
       orient="auto"
       inkscape:stockid="Arrow1Lstart"
       inkscape:isstock="true">
      <path
         transform="scale(0.8) translate(12.5,0)"
         style="fill-rule:evenodd;stroke:#000000;stroke-width:1pt;stroke-opacity:1;fill:#000000;fill-opacity:1"
         d="M 0.0,0.0 L 5.0,-5.0 L -12.5,0.0 L 5.0,5.0 L 0.0,0.0 z "
         id="path2276" />
    </marker>
    <marker
       style="overflow:visible"
       id="Arrow1Lstart"
       refX="0.0"
       refY="0.0"
       orient="auto"
       inkscape:stockid="Arrow1Lstart"
       inkscape:isstock="true">
      <path
         transform="scale(0.8) translate(12.5,0)"
         style="fill-rule:evenodd;stroke:#000000;stroke-width:1pt;stroke-opacity:1;fill:#000000;fill-opacity:1"
         d="M 0.0,0.0 L 5.0,-5.0 L -12.5,0.0 L 5.0,5.0 L 0.0,0.0 z "
         id="path1994" />
    </marker>
    <rect
       x="72"
       y="16"
       width="44"
       height="60"
       id="rect1765" />
    <rect
       x="8"
       y="12"
       width="48"
       height="64"
       id="rect1759" />
    <rect
       x="8"
       y="12"
       width="48"
       height="64"
       id="rect1759-0" />
    <rect
       x="8"
       y="12"
       width="48"
       height="64"
       id="rect1778" />
    <rect
       x="72"
       y="16"
       width="44"
       height="60"
       id="rect1765-9" />
    <rect
       x="72"
       y="16"
       width="44"
       height="60"
       id="rect1781" />
    <rect
       x="8"
       y="12"
       width="48"
       height="64"
       id="rect1759-0-6" />
    <rect
       x="8"
       y="12"
       width="48"
       height="64"
       id="rect1834" />
    <rect
       x="72"
       y="16"
       width="44"
       height="60"
       id="rect1765-0" />
    <rect
       x="72"
       y="16"
       width="44"
       height="60"
       id="rect1871" />
    <rect
       x="8"
       y="12"
       width="48"
       height="64"
       id="rect1759-0-6-2" />
    <rect
       x="8"
       y="12"
       width="48"
       height="64"
       id="rect1907" />
    <rect
       x="8"
       y="12"
       width="48"
       height="64"
       id="rect1759-0-6-22" />
    <rect
       x="8"
       y="12"
       width="48"
       height="64"
       id="rect1907-6" />
    <rect
       x="72"
       y="16"
       width="44"
       height="60"
       id="rect1765-6" />
    <rect
       x="72"
       y="16"
       width="44"
       height="60"
       id="rect1965" />
  </defs>
  <sodipodi:namedview
     id="base"
     pagecolor="#ffffff"
     bordercolor="#666666"
     borderopacity="1.0"
     inkscape:pageopacity="0.0"
     inkscape:pageshadow="2"
     inkscape:zoom="5.12"
     inkscape:cx="55.770531"
     inkscape:cy="69.678655"
     inkscape:document-units="px"
     inkscape:current-layer="layer1"
     inkscape:document-rotation="0"
     showgrid="true"
     inkscape:window-width="1500"
     inkscape:window-height="930"
     inkscape:window-x="-6"
     inkscape:window-y="-6"
     inkscape:window-maximized="1">
    <inkscape:grid
       type="xygrid"
       id="grid1403" />
  </sodipodi:namedview>
  <metadata
     id="metadata836">
    <rdf:RDF>
      <cc:Work
         rdf:about="">
        <dc:format>image/svg+xml</dc:format>
        <dc:type
           rdf:resource="http://purl.org/dc/dcmitype/StillImage" />
        <dc:title></dc:title>
      </cc:Work>
    </rdf:RDF>
  </metadata>
  <g
     inkscape:label="Layer 1"
     inkscape:groupmode="layer"
     id="layer1">
    <circle
       style="fill:none;stroke:#000000;stroke-width:7.789;stroke-linecap:round;stroke-linejoin:round"
       id="path899"
       sodipodi:type="arc"
       sodipodi:cx="62"
       sodipodi:cy="62"
       sodipodi:rx="54"
       sodipodi:ry="54"
       sodipodi:start="0"
       sodipodi:end="6.2708982"
       sodipodi:open="true"
       sodipodi:arc-type="arc"
       d="M 116,62 A 54,54 0 0 1 62.165876,115.99975 54,54 0 0 1 8.0010191,62.33175 54,54 0 0 1 61.502379,8.0022929 54,54 0 0 1 115.99592,61.336513" />
    <path
       style="fill:#000000;stroke:#000000;stroke-width:1px;stroke-linecap:butt;stroke-linejoin:miter;stroke-opacity:1;fill-opacity:1"
       d="m 32,108 4,-8 -4,-8 -4,-8 4,-8 4,-8 -4,-8 -12,-4 h -4 l -4,4 -4,4 c 2.691833,24.690371 11.780865,37.30056 24,44"
       id="path901"
       sodipodi:nodetypes="cccccccccccc" />
    <path
       style="fill:#000000;stroke:#000000;stroke-width:1px;stroke-linecap:butt;stroke-linejoin:miter;stroke-opacity:1;fill-opacity:1"
       d="m 16,52 -4,-8 c 4.105189,-9.441859 6.625459,-19.775871 20,-24 h 4 l 4,4 4,4 v 8 l -4,4 -4,4 h -4 l -4,4 -8,-4 z"
       id="path903"
       sodipodi:nodetypes="ccccccccccccc" />
    <path
       style="fill:#000000;stroke:#000000;stroke-width:1px;stroke-linecap:butt;stroke-linejoin:miter;stroke-opacity:1;fill-opacity:1"
       d="m 64,44 -8,4 4,8 h 4 l 4,-4 h 8 l 8,8 h 4 l 4,12 8,-8 h 4 v 12 l 8,8 c 3.78708,-16.23608 8.41264,-32.292482 -4,-52 l -16,4 h -8 l -4,-4 h -4 l -4,-4 -8,4 4,4 v 8 z"
       id="path905"
       sodipodi:nodetypes="ccccccccccccccccccccccc" />
    <path
       style="fill:#000000;stroke:#000000;stroke-width:1px;stroke-linecap:butt;stroke-linejoin:miter;stroke-opacity:1;fill-opacity:1"
       d="m 76,60 h -8 l -8,4 -4,8 8,12 4,12 4,8 8,-4 V 84 l 4,-12 v -8 l -8,-4"
       id="path907" />
  </g>
</svg>
