<?xml version="1.0" encoding="UTF-8" standalone="no"?>
<!-- Created with Inkscape (http://www.inkscape.org/) -->

<svg
   xmlns:dc="http://purl.org/dc/elements/1.1/"
   xmlns:cc="http://creativecommons.org/ns#"
   xmlns:rdf="http://www.w3.org/1999/02/22-rdf-syntax-ns#"
   xmlns:svg="http://www.w3.org/2000/svg"
   xmlns="http://www.w3.org/2000/svg"
   xmlns:sodipodi="http://sodipodi.sourceforge.net/DTD/sodipodi-0.dtd"
   xmlns:inkscape="http://www.inkscape.org/namespaces/inkscape"
   width="210mm"
   height="297mm"
   viewBox="0 0 210 297"
   version="1.1"
   id="svg8"
   inkscape:export-filename="C:\Users\nturt\Google Drive\Code\Node\Kalmany\keclogo.png"
   inkscape:export-xdpi="96"
   inkscape:export-ydpi="96"
   inkscape:version="0.92.4 (5da689c313, 2019-01-14)"
   sodipodi:docname="KEX_logo.svg">
  <defs
     id="defs2" />
  <sodipodi:namedview
     id="base"
     pagecolor="#ffffff"
     bordercolor="#666666"
     borderopacity="1.0"
     inkscape:pageopacity="0.0"
     inkscape:pageshadow="2"
     inkscape:zoom="3.959798"
     inkscape:cx="220.6848"
     inkscape:cy="611.69128"
     inkscape:document-units="mm"
     inkscape:current-layer="layer1"
     showgrid="false"
     inkscape:window-width="3000"
     inkscape:window-height="1793"
     inkscape:window-x="3827"
     inkscape:window-y="2147"
     inkscape:window-maximized="1" />
  <metadata
     id="metadata5">
    <rdf:RDF>
      <cc:Work
         rdf:about="">
        <dc:format>image/svg+xml</dc:format>
        <dc:type
           rdf:resource="http://purl.org/dc/dcmitype/StillImage" />
        <dc:title></dc:title>
      </cc:Work>
    </rdf:RDF>
  </metadata>
  <g
     inkscape:label="Layer 1"
     inkscape:groupmode="layer"
     id="layer1">
    <circle
       style="fill:#ffffff;stroke:#000000;stroke-width:0.27041331;stroke-opacity:0.04927536"
       id="path910"
       cx="84.523994"
       cy="128.15248"
       r="40.154335" />
    <path
       style="fill:#000000;stroke:#000000;stroke-width:0.26458332px;stroke-linecap:butt;stroke-linejoin:miter;stroke-opacity:1"
       d="m 99.454984,119.77642 c 1.216676,-0.13313 6.081586,3.00674 6.567326,-4.58297 -0.93983,-2.42567 -0.63974,-4.17178 -5.14992,-4.91368 -5.008181,-0.0945 -7.37053,3.73251 -11.150294,5.24441 -3.77976,1.51191 -15.449776,2.12612 -19.890995,9.78014 -4.441221,7.65402 -1.700894,8.22098 -4.724703,7.74851 -3.023809,-0.47247 -5.905878,-3.44903 -7.417781,-4.58296 -1.511906,-1.13393 -1.322917,0.94494 -1.322917,0.94494 -2.025095,-1.26874 -2.994718,-0.50432 -2.173364,1.22842 -2.635129,-0.33551 -2.956674,-0.0394 -2.362351,1.6064 -4.01945,-0.57512 -2.004631,2.26016 -0.283482,3.68527 2.267857,1.88988 7.417782,2.78758 15.166295,2.31511 19.864001,6.34078 28.225003,-18.52855 32.742186,-18.47359 z"
       id="path10"
       inkscape:connector-curvature="0"
       sodipodi:nodetypes="ccccssscccccc" />
    <path
       style="fill:#000000;stroke:#000000;stroke-width:0.26458332px;stroke-linecap:butt;stroke-linejoin:miter;stroke-opacity:1"
       d="m 88.493676,117.83928 c 0,0 -6.85082,-0.18898 -12.567709,-6.42559 -5.716891,-6.23661 -8.457218,-11.528276 -8.457218,-11.528276 0,0 -1.228423,-2.031622 -1.653646,-1.181174 -0.425222,0.850445 0.519719,4.39397 0.519719,4.39397 0,0 -1.370166,-3.968748 -1.748142,-2.92931 -0.377976,1.03943 0.944941,4.58296 0.944941,4.58296 0,0 -2.173362,-4.15774 -1.842633,-2.26786 0.33073,1.88988 1.275668,4.15774 1.275668,4.15774 0,0 -3.260043,-3.30729 -2.598584,-1.74814 0.661458,1.55915 2.362351,3.77976 2.362351,3.77976 0,0 -3.02381,-2.26786 -2.031622,-0.51972 0.992187,1.74814 1.748139,2.17337 1.748139,2.17337 0,0 -1.370163,-1.03944 -1.27567,-0.37798 0.09449,0.66146 1.181177,2.17336 1.181177,2.17336 0,0 -1.511906,-0.66146 -0.992188,0.37798 0.519716,1.03944 0.519716,1.03944 0.519716,1.03944 l 1.086681,0.99218 c 0,0 -0.944938,-0.0945 -0.755952,0.42523 0.188989,0.51971 1.181177,1.5119 1.181177,1.5119 0,0 -0.992188,-0.0473 -0.661458,0.70871 0.330729,0.75595 1.417409,1.55915 1.417409,1.55915 0,0 -0.755951,0.14174 -0.425222,0.8032 0.330729,0.66146 1.889879,1.55915 1.889879,1.55915 0,0 -1.842632,-0.28348 -1.086681,0.37798 0.755952,0.66145 2.315104,1.32291 2.315104,1.32291 0,0 -2.173361,-0.14174 -1.133927,0.61421 1.039434,0.75596 2.409597,0.99219 2.409597,0.99219 0,0 -2.267857,-0.0473 -1.322916,0.51972 0.944941,0.56696 3.260045,1.08668 3.260045,1.08668 z"
       id="path12"
       inkscape:connector-curvature="0" />
    <path
       style="fill:#000000;stroke:#000000;stroke-width:0.26458332px;stroke-linecap:butt;stroke-linejoin:miter;stroke-opacity:1"
       d="m 100.73065,119.44568 c 0,0 2.83482,2.55134 3.40179,3.44904 0.56696,0.89769 0.99219,1.37016 0.99219,1.37016 -0.0421,-1.41935 -0.28375,-3.29215 -0.28347,-3.35454 0,-0.8032 0.51967,-3.40178 0.51967,-3.40178 z"
       id="path16"
       inkscape:connector-curvature="0"
       sodipodi:nodetypes="cccccc" />
    <path
       style="fill:#000000;stroke:#000000;stroke-width:0.26458332px;stroke-linecap:butt;stroke-linejoin:miter;stroke-opacity:1"
       d="m 90.761533,117.36681 c 0,0 2.456844,-3.68526 2.551337,-7.46503 0.0945,-3.77976 -1.181174,-4.39397 0.944941,-8.55171 2.126118,-4.157736 3.023809,-6.189357 1.795389,-5.622392 -1.228424,0.566962 -2.882069,1.700892 -2.882069,1.700892 0,0 0.519715,-2.031622 -0.614212,-1.464659 -1.133928,0.566965 -2.126115,1.889881 -2.126115,1.889881 0,0 -0.04725,-1.889881 -1.27567,-0.755951 -1.228423,1.133927 -1.653646,2.031621 -1.653646,2.031621 0,0 -0.377978,-1.984375 -1.417412,-0.566965 -1.039435,1.417413 -1.6064,2.834823 -1.6064,2.834823 0,0 -0.614209,-2.645833 -1.370163,-0.33073 -0.755952,2.3151 -1.322917,4.06324 -1.322917,4.06324 0,0 -0.566962,-1.08668 -0.94494,0.70871 -0.377976,1.79539 -0.33073,3.68527 -0.33073,3.68527 0,0 -0.755951,-1.13393 -0.755951,0.56696 0,1.70089 0.141742,3.16555 0.141742,3.16555 0,0 -1.606399,-1.5119 -1.039436,0.42523 0.566965,1.93712 1.370166,3.68526 1.370166,3.68526 z"
       id="path91"
       inkscape:connector-curvature="0" />
    <rect
       style="fill:#000000;stroke-width:0.26458332"
       id="rect93"
       width="33.167408"
       height="17.528646"
       x="64.410629"
       y="137.45393"
       transform="rotate(-9.4680113)"
       inkscape:transform-center-x="-0.51971726"
       inkscape:transform-center-y="2.1733631" />
    <path
       style="fill:#ffffff;stroke:#000000;stroke-width:0.26458332px;stroke-linecap:butt;stroke-linejoin:miter;stroke-opacity:0"
       d="m 86.143951,124.98613 3.578145,-0.53226 14.552084,4.67745 11.33929,-9.07143 3.24606,-0.5297 -14.30187,11.86899 -18.413709,-6.41305"
       id="path95"
       inkscape:connector-curvature="0" />
    <flowRoot
       xml:space="preserve"
       id="flowRoot902"
       style="font-style:normal;font-weight:normal;font-size:40px;line-height:1.25;font-family:sans-serif;letter-spacing:0px;word-spacing:0px;fill:#000000;fill-opacity:1;stroke:none"
       transform="scale(0.26458333)"><flowRegion
         id="flowRegion904"><rect
           id="rect906"
           width="182.58507"
           height="54.548237"
           x="212.88965"
           y="533.60077" /></flowRegion><flowPara
         id="flowPara908"
         style="-inkscape-font-specification:'Lucida Console';font-family:'Lucida Console';font-weight:normal;font-style:normal;font-stretch:normal;font-variant:normal;font-size:48.0000006px;letter-spacing:9.83000134px">kec</flowPara></flowRoot>  </g>
</svg>
